<svg width="15" height="21" viewBox="0 0 15 21" fill="none" xmlns="http://www.w3.org/2000/svg">
<path d="M7.64909 9.89583C6.95842 9.89583 6.29604 9.62147 5.80766 9.13309C5.31929 8.64472 5.04492 7.98234 5.04492 7.29167C5.04492 6.601 5.31929 5.93862 5.80766 5.45024C6.29604 4.96187 6.95842 4.6875 7.64909 4.6875C8.33976 4.6875 9.00214 4.96187 9.49051 5.45024C9.97889 5.93862 10.2533 6.601 10.2533 7.29167C10.2533 7.63365 10.1859 7.97229 10.055 8.28824C9.92415 8.60419 9.73233 8.89127 9.49051 9.13309C9.24869 9.37491 8.96161 9.56673 8.64566 9.6976C8.32971 9.82848 7.99107 9.89583 7.64909 9.89583M7.64909 0C5.71522 0 3.86055 0.768227 2.4931 2.13568C1.12565 3.50313 0.357422 5.3578 0.357422 7.29167C0.357422 12.7604 7.64909 20.8333 7.64909 20.8333C7.64909 20.8333 14.9408 12.7604 14.9408 7.29167C14.9408 5.3578 14.1725 3.50313 12.8051 2.13568C11.4376 0.768227 9.58296 0 7.64909 0V0Z" fill="#86C3C7"/>
</svg>
