<svg width="17" height="15" viewBox="0 0 17 15" fill="none" xmlns="http://www.w3.org/2000/svg">
<path fill-rule="evenodd" clip-rule="evenodd" d="M10.7649 5.54167C10.7649 7.8371 8.83801 9.69792 6.46107 9.69792C4.08414 9.69792 2.15726 7.8371 2.15726 5.54167C2.15726 3.24623 4.08414 1.38542 6.46107 1.38542C8.83801 1.38542 10.7649 3.24623 10.7649 5.54167ZM9.8977 9.98006C8.93973 10.6729 7.75003 11.0833 6.46107 11.0833C3.29183 11.0833 0.722656 8.60224 0.722656 5.54167C0.722656 2.48109 3.29183 0 6.46107 0C9.63032 0 12.1995 2.48109 12.1995 5.54167C12.1995 6.78644 11.7745 7.93535 11.057 8.86048L16.0582 13.6902L14.8989 14.8098L9.8977 9.98006Z" fill="#A9ABB8"/>
</svg>
